<svg id="visual" viewBox="0 0 900 600" width="900" height="600" xmlns="http://www.w3.org/2000/svg" xmlns:xlink="http://www.w3.org/1999/xlink" version="1.1"><rect x="0" y="0" width="900" height="600" fill="#ffffff"></rect><path d="M0 376L21.5 391.2C43 406.3 86 436.7 128.8 437.3C171.7 438 214.3 409 257.2 403.7C300 398.3 343 416.7 385.8 436.5C428.7 456.3 471.3 477.7 514.2 477.8C557 478 600 457 642.8 438.5C685.7 420 728.3 404 771.2 401.2C814 398.3 857 408.7 878.5 413.8L900 419L900 601L878.5 601C857 601 814 601 771.2 601C728.3 601 685.7 601 642.8 601C600 601 557 601 514.2 601C471.3 601 428.7 601 385.8 601C343 601 300 601 257.2 601C214.3 601 171.7 601 128.8 601C86 601 43 601 21.5 601L0 601Z" fill="#0066FF" stroke-linecap="round" stroke-linejoin="miter"></path></svg>